# AST/ASF file generated using VICON BodyLanguage
# -----------------------------------------------
:version 1.10
:name VICON
:units
  mass 1.0
  length 0.45
  angle deg
:documentation
   .ast/.asf automatically generated from VICON data using
   VICON BodyBuilder and BodyLanguage model FoxedUp or BRILLIANT.MOD
:root
   order TX TY TZ RX RY RZ
   axis XYZ
   position 0 0 0  
   orientation 0 0 0 
:bonedata
  begin
     id 1 
     name lhipjoint
     direction 0.643824 -0.71708 0.266994 
     length 2.52133 
     axis 0 0 0  XYZ
  end
  begin
     id 2 
     name lfemur
     direction 0.34202 -0.939693 0  
     length 7.51824  
     axis 0 0 20  XYZ
    dof rx ry rz
    limits (-160.0 20.0)
           (-70.0 70.0)
           (-60.0 70.0)
  end
  begin
     id 3 
     name ltibia
     direction 0.34202 -0.939693 0   
     length 7.3685   
     axis 0 0 20   XYZ
    dof rx
    limits (-10.0 170.0)
  end
  begin
     id 4 
     name lfoot
     direction 0.105419 -0.289636 0.951314   
     length 2.20972   
     axis -90 7.62852e-016 20   XYZ
    dof rx rz
    limits (-45.0 90.0)
           (-70.0 20.0)
  end
  begin
     id 5 
     name ltoes
     direction 1.53549e-011 -4.21833e-011 1   
     length 1.10139   
     axis -90 7.62852e-016 20   XYZ
    dof rx
    limits (-90.0 20.0)
  end
  begin
     id 6 
     name rhipjoint
     direction -0.608823 -0.743445 0.276811   
     length 2.43192  
     axis 0 0 0  XYZ 
  end
  begin
     id 7 
     name rfemur
     direction -0.34202 -0.939693 0   
     length 7.69715   
     axis 0 0 -20   XYZ
    dof rx ry rz
    limits (-160.0 20.0)
           (-70.0 70.0)
           (-70.0 60.0)
  end
  begin
     id 8 
     name rtibia
     direction -0.34202 -0.939693 0   
     length 7.44924   
     axis 0 0 -20   XYZ
    dof rx
    limits (-10.0 170.0)
 end
 begin
     id 9 
     name rfoot
     direction -0.103614 -0.284677 0.953007   
     length 2.22623  
     axis -90 -7.62852e-016 -20   XYZ
    dof rx rz
    limits (-45.0 90.0)
           (-20.0 70.0)
  end
  begin
     id 10 
     name rtoes
     direction -1.53537e-011 -4.22026e-011 1   
     length 1.11   
     axis -90 -7.62852e-016 -20   XYZ
    dof rx
    limits (-90.0 20.0)
  end
  begin
     id 11 
     name lowerback
     direction -0.0101212 0.99662 -0.0815298   
     length 2.08277   
     axis 0 0 0   XYZ
    dof rx ry rz
    limits (-20.0 45.0)
           (-30.0 30.0)
           (-30.0 30.0)
  end
  begin
     id 12 
     name upperback
     direction 0.024314 0.999591 -0.0150645   
     length 2.08524   
     axis 0 0 0   XYZ
    dof rx ry rz
    limits (-20.0 45.0)
           (-30.0 30.0)
           (-30.0 30.0)
  end
  begin
     id 13 
     name thorax
     direction 0.0285959 0.999323 0.0231357   
     length 2.09645   
     axis 0 0 0   XYZ
    dof rx ry rz
    limits (-20.0 45.0)
           (-30.0 30.0)
           (-30.0 30.0)
  end
  begin
     id 14 
     name lowerneck
     direction -0.065512 0.979301 0.191515   
     length 1.63798   
     axis 0 0 0   XYZ
    dof rx ry rz
    limits (-20.0 45.0)
           (-30.0 30.0)
           (-30.0 30.0)
  end
  begin
     id 15 
     name upperneck
     direction 0.0498479 0.98191 -0.182667   
     length 1.68731   
     axis 0 0 0   XYZ
    dof rx ry rz
    limits (-20.0 45.0)
           (-30.0 30.0)
           (-30.0 30.0)
  end
  begin
     id 16
     name head
     direction 0.0230358 0.996257 -0.0833175  
     length 1.69785  
     axis 0 0 0   XYZ
    dof rx ry rz
    limits (-20.0 45.0)
           (-30.0 30.0)
           (-30.0 30.0)
  end
  begin
     id 17 
     name lclavicle
     direction 0.967963 0.201165 -0.150269  
     length 3.63976  
     axis 0 0 0   XYZ
    dof ry rz
    limits (-20.0 10.0)
           (0.0 20.0)
  end
  begin
     id 18 
     name lhumerus
     direction 1 -4.48954e-011 -2.92837e-028   
     length 5.32462   
     axis 180 -30 -90   XYZ
    dof rx ry rz
    limits (-60.0 90.0)
           (-90.0 90.0)
           (-90.0 90.0)
  end
  begin
     id 19
     name lradius
     direction 1 -4.48958e-011 -6.39511e-027   
     length 3.48402   
     axis 180 -30 -90   XYZ
    dof rx
    limits (-10.0 170.0)
  end
  begin
     id 20
     name lwrist
     direction 1 -4.48975e-011 -1.1413e-026   
     length 1.74201   
     axis 6.88575e-015 90 90   XYZ
    dof ry
    limits (-180.0 0.0)
 end
  begin
     id 21 
     name lhand
     direction 1 -4.48899e-011 -2.28192e-026   
     length 0.572476   
     axis 1.45643e-014 90 90   XYZ
    dof rx rz
    limits (-90.0 90.0)
           (-45.0 45.0)
  end
  begin
     id 22 
     name lfingers
     direction 1 -4.49155e-011 -4.5684e-026   
     length 0.461545   
     axis 2.91283e-014 90 90   XYZ
    dof rx
    limits (0.0 90.0)
  end
  begin
     id 23
     name lthumb
     direction 0.707107 -6.34943e-011 0.707107   
     length 0.662688   
     axis -90 45 -2.25915e-014   XYZ
    dof rx rz
    limits (-45.0 45.0)
           (-45.0 45.0)
  end
  begin
     id 24 
     name rclavicle
     direction -0.964103 0.264019 -0.0282629   
     length 3.54491  
     axis 0 0 0   XYZ 
    dof ry rz
    limits (-10.0 20.0)
           (-20.0 0.0)
  end
  begin
     id 25 
     name rhumerus
     direction -1 -4.48964e-011 -2.45032e-027  
     length 5.33589   
     axis 180 30 90   XYZ
    dof rx ry rz
    limits (-90.0 60.0)
           (-90.0 90.0)
           (-90.0 90.0)
  end
  begin
     id 26 
     name rradius
     direction -1 -4.48987e-011 -1.55093e-027   
     length 3.64134   
     axis 180 30 90   XYZ
    dof rx
    limits (-10.0 170.0)
  end
  begin
     id 27 
     name rwrist
     direction -1 -4.4897e-011 -1.14128e-026   
     length 1.82067   
     axis 6.88575e-015 -90 -90   XYZ
    dof ry
    limits (-180.0 0.0)
  end
  begin
     id 28
     name rhand
     direction -1 -4.49021e-011 -2.28301e-026   
     length 0.734811   
     axis 1.45643e-014 -90 -90   XYZ
    dof rx rz
    limits (-90.0 90.0)
           (-45.0 45.0)
  end
  begin
     id 29
     name rfingers
     direction -1 -4.48862e-011 -4.56319e-026   
     length 0.592424   
     axis 2.91283e-014 -90 -90   XYZ
    dof rx
    limits (0.0 90.0)
  end
  begin
     id 30
     name rthumb
     direction -0.707107 -6.34978e-011 0.707107   
     length 0.850605   
     axis -90 -45 2.25915e-014   XYZ
    dof rx rz
    limits (-45.0 45.0)
           (-45.0 45.0)
  end
:hierarchy
  begin
    root lhipjoint rhipjoint lowerback
    lhipjoint lfemur
    lfemur ltibia
    ltibia lfoot
    lfoot ltoes
    rhipjoint rfemur
    rfemur rtibia
    rtibia rfoot
    rfoot rtoes
    lowerback upperback
    upperback thorax
    thorax lowerneck lclavicle rclavicle
    lowerneck upperneck
    upperneck head
    lclavicle lhumerus
    lhumerus lradius
    lradius lwrist
    lwrist lhand lthumb
    lhand lfingers
    rclavicle rhumerus
    rhumerus rradius
    rradius rwrist
    rwrist rhand rthumb
    rhand rfingers
  end

#!OML:ASF F:\VICON\USERDATA\INSTALL\rory3\rory3.ASF
:FULLY-SPECIFIED
:DEGREES
158
root 3.96331 17.7294 2.03092 -17.0902 -77.2996 27.4098
lowerback 4.31444 -0.643013 -4.13233
upperback 4.17192 -1.0585 1.24967
thorax 1.98144 -0.686264 3.63214
lowerneck -11.9404 -1.34127 -13.1484
upperneck 40.5905 -0.0982145 0.0414515
head 16.848 -2.59282 2.17425
rclavicle 9.93923e-015 1.51076e-014
rhumerus -30.0321 -4.51804 -68.6271
rradius 39.8482
rwrist 45.4162
rhand -40.7853 -14.1167
rfingers 7.12502
rthumb -13.7247 -43.6441
lclavicle 9.93923e-015 1.51076e-014
lhumerus -32.6013 5.58393 82.2704
lradius 35.9304
lwrist -6.60385
lhand -13.2263 24.1611
lfingers 7.12502
lthumb 12.8751 53.744
rfemur -29.9973 2.47058 15.4005
rtibia 73.3463
rfoot -10.3819 0.784924
rtoes -11.4377
lfemur -25.2273 0.979232 -29.0559
ltibia 19.5751
lfoot -1.88509 -13.1268
ltoes -3.0161
159
root 3.90397 17.7206 2.03989 -16.4373 -76.9074 26.5215
lowerback 4.68636 -0.853266 -4.19259
upperback 4.21325 -1.35812 1.24617
thorax 1.84673 -0.836812 3.6761
lowerneck -11.9946 -1.29075 -12.8145
upperneck 40.6285 -0.0373735 -0.16331
head 16.8721 -2.54999 2.0333
rclavicle 1.78906e-014 -2.38542e-015
rhumerus -29.9928 -3.96803 -68.934
rradius 39.8435
rwrist 45.4428
rhand -40.8759 -14.1578
rfingers 7.12502
rthumb -13.8121 -43.6793
lclavicle 1.78906e-014 -2.38542e-015
lhumerus -32.5127 5.80028 81.8545
lradius 36.5547
lwrist -6.45352
lhand -14.9635 24.06
lfingers 7.12502
lthumb 11.1999 53.7411
rfemur -30.881 1.91262 15.511
rtibia 74.0471
rfoot -10.4294 2.10334
rtoes -10.8528
lfemur -24.9264 1.17384 -29.2107
ltibia 19.8522
lfoot -3.15211 -14.0617
ltoes -9.13825
160
root 3.83639 17.7143 2.05725 -16.4879 -76.7028 26.3385
lowerback 4.97241 -0.94663 -4.276
upperback 4.2357 -1.49889 1.23169
thorax 1.72624 -0.907778 3.718
lowerneck -12.0199 -1.23243 -12.7379
upperneck 40.7233 0.00235518 -0.107162
head 16.9231 -2.52326 2.05141
rclavicle -1.19271e-014 1.59028e-014
rhumerus -30.1113 -3.81969 -68.9966
rradius 39.7902
rwrist 46.0376
rhand -41.4594 -13.832
rfingers 7.12502
rthumb -14.3744 -43.3143
lclavicle -1.19271e-014 1.59028e-014
lhumerus -32.4598 5.89352 81.5822
lradius 37.1674
lwrist -6.15693
lhand -14.9055 24.1457
lfingers 7.12502
lthumb 11.2559 53.8237
rfemur -31.8029 1.41525 15.5106
rtibia 74.6873
rfoot -10.3753 3.07373
rtoes -13.5452
lfemur -24.5518 1.12887 -29.3118
ltibia 20.1485
lfoot -3.91489 -14.2605
ltoes -10.213
161
root 3.77895 17.7112 2.06492 -16.6662 -76.4874 26.5295
lowerback 5.13338 -1.00665 -4.49756
upperback 4.19392 -1.59373 1.25836
thorax 1.61093 -0.957221 3.87792
lowerneck -12.0474 -1.18794 -12.8825
upperneck 40.7772 0.0657491 0.019004
head 16.9548 -2.50685 2.14426
rclavicle 2.14687e-014 -5.56597e-015
rhumerus -30.1521 -3.63726 -68.9456
rradius 39.6861
rwrist 46.617
rhand -42.2133 -13.5822
rfingers 7.12502
rthumb -15.1006 -43.0114
lclavicle 2.14687e-014 -5.56597e-015
lhumerus -32.3555 5.94424 81.4419
lradius 37.7724
lwrist -5.86404
lhand -13.8805 24.5315
lfingers 7.12502
lthumb 12.2443 54.1531
rfemur -33.0575 0.91838 15.4878
rtibia 75.2731
rfoot -10.2661 3.73015
rtoes -15.7918
lfemur -24.4652 0.894679 -29.3214
ltibia 20.4625
lfoot -3.59283 -14.1875
ltoes -5.57255
162
root 3.71751 17.7095 2.07584 -16.9289 -76.3269 26.8068
lowerback 5.15426 -1.03545 -4.61855
upperback 4.23354 -1.63789 1.24749
thorax 1.64882 -0.984331 3.93616
lowerneck -12.0725 -1.28528 -13.0202
upperneck 40.7651 -0.0571707 0.0728489
head 16.9691 -2.56885 2.17158
rclavicle 4.01545e-014 -3.18055e-015
rhumerus -30.0963 -3.17501 -69.0915
rradius 39.7327
rwrist 46.8222
rhand -42.0325 -14.3951
rfingers 7.12502
rthumb -14.9265 -43.8373
lclavicle 4.01545e-014 -3.18055e-015
lhumerus -32.1358 6.09567 81.3393
lradius 38.3127
lwrist -5.89728
lhand -12.9904 24.9533
lfingers 7.12502
lthumb 13.1024 54.5217
rfemur -34.2516 0.477879 15.4406
rtibia 75.7396
rfoot -10.1537 4.55615
rtoes -16.0988
lfemur -24.3999 0.439541 -29.2885
ltibia 20.8532
lfoot -3.60401 -14.0168
ltoes -4.52764
163
root 3.6543 17.6993 2.08737 -17.3146 -76.1712 27.0955
lowerback 5.31655 -1.20576 -4.9435
upperback 4.27208 -1.88747 1.39765
thorax 1.64321 -1.12136 4.28713
lowerneck -12.1006 -1.30616 -13.3256
upperneck 40.6583 0.055187 -0.0640107
head 16.9205 -2.58363 2.18009
rclavicle 1.39149e-014 2.38542e-014
rhumerus -29.8518 -2.09481 -69.2244
rradius 39.7979
rwrist 47.0281
rhand -41.8435 -15.1503
rfingers 7.12502
rthumb -14.7444 -44.6059
lclavicle 1.39149e-014 2.38542e-014
lhumerus -32.0751 6.93563 81.2476
lradius 38.8995
lwrist -5.97935
lhand -11.7092 25.2344
lfingers 7.12502
lthumb 14.3372 54.7193
rfemur -35.2925 0.0859939 15.3987
rtibia 76.1212
rfoot -10.1319 5.2947
rtoes -16.2642
lfemur -24.2949 0.179183 -29.4006
ltibia 21.3746
lfoot -4.64476 -14.0999
ltoes -9.14526
164
root 3.59716 17.6865 2.08917 -16.6619 -76.0298 26.7073
lowerback 5.22044 -1.40873 -5.22344
upperback 4.16892 -2.16329 1.61444
thorax 1.64282 -1.26585 4.67817
lowerneck -12.1143 -1.20752 -13.477
upperneck 40.4769 0.344227 -0.293933
head 16.8087 -2.50931 2.15075
rclavicle 1.15295e-014 -2.22639e-014
rhumerus -29.6216 -0.939487 -69.3373
rradius 39.8043
rwrist 47.0536
rhand -42.2589 -15.4815
rfingers 7.12502
rthumb -15.1446 -44.9074
lclavicle 1.15295e-014 -2.22639e-014
lhumerus -32.098 7.44155 81.1478
lradius 39.634
lwrist -5.46088
lhand -11.5955 25.3284
lfingers 7.12502
lthumb 14.4467 54.8055
rfemur -36.7685 -0.260677 15.6212
rtibia 76.4202
rfoot -10.0418 5.56411
rtoes -17.1423
lfemur -24.6768 0.35509 -29.4047
ltibia 21.9593
lfoot -5.04364 -14.3269
ltoes -7.8565
165
root 3.53802 17.6749 2.09255 -15.8955 -76.0107 26.2123
lowerback 5.00533 -1.2158 -5.03554
upperback 4.10609 -1.8841 1.43341
thorax 1.649 -1.11552 4.36994
lowerneck -11.9436 -1.38204 -12.9194
upperneck 40.3955 -0.107692 -0.277653
head 16.7439 -2.59437 1.98854
rclavicle 2.38542e-015 6.36111e-015
rhumerus -29.8694 -1.34215 -69.5827
rradius 39.7618
rwrist 47.2745
rhand -42.611 -15.6416
rfingers 7.12502
rthumb -15.4837 -45.0415
lclavicle 2.38542e-015 6.36111e-015
lhumerus -31.8117 6.34967 80.9456
lradius 40.3671
lwrist -4.61387
lhand -13.5619 25.3374
lfingers 7.12502
lthumb 12.5515 54.9404
rfemur -38.2673 -0.4203 15.9142
rtibia 76.6214
rfoot -10.0854 5.58404
rtoes -18.2857
lfemur -25.0463 0.50201 -29.2689
ltibia 22.5062
lfoot -4.11745 -13.833
ltoes 3.48973
166
root 3.47898 17.6629 2.09787 -15.6635 -75.9588 26.0615
lowerback 4.98104 -0.933214 -4.8648
upperback 4.10803 -1.49751 1.16707
thorax 1.60632 -0.912358 3.98491
lowerneck -11.7297 -1.65475 -12.314
upperneck 40.3718 -0.771151 -0.157291
head 16.7119 -2.74824 1.82915
rclavicle -5.1684e-015 1.27222e-014
rhumerus -30.1911 -2.14296 -69.7702
rradius 39.7221
rwrist 47.7569
rhand -42.7121 -15.3976
rfingers 7.12502
rthumb -15.5811 -44.79
lclavicle -5.1684e-015 1.27222e-014
lhumerus -31.4257 5.15322 80.7547
lradius 41.0376
lwrist -4.03665
lhand -15.1034 25.5
lfingers 7.12502
lthumb 11.065 55.1884
rfemur -39.5214 -0.454994 16.0331
rtibia 76.7318
rfoot -10.173 5.79616
rtoes -17.0105
lfemur -25.1826 0.780121 -29.3255
ltibia 22.9961
lfoot -5.85765 -14.8887
ltoes -6.83226
167
root 3.41853 17.6553 2.10183 -16.151 -75.8832 26.4903
lowerback 5.14141 -0.855972 -5.08951
upperback 4.13191 -1.41135 1.09742
thorax 1.53768 -0.872799 4.04004
lowerneck -11.6425 -1.71472 -12.0654
upperneck 40.3143 -0.923496 -0.21088
head 16.6636 -2.77446 1.73784
rclavicle 7.95139e-015 -7.95139e-015
rhumerus -30.2247 -1.93232 -69.8869
rradius 39.7421
rwrist 48.0493
rhand -42.6425 -15.2274
rfingers 7.12502
rthumb -15.514 -44.625
lclavicle 7.95139e-015 -7.95139e-015
lhumerus -31.281 4.88184 80.6495
lradius 41.7946
lwrist -3.51092
lhand -15.5125 25.6695
lfingers 7.12502
lthumb 10.6704 55.3786
rfemur -40.5659 -0.381657 15.9729
rtibia 76.7184
rfoot -10.2826 6.16866
rtoes -15.5403
lfemur -25.0995 0.683379 -29.415
ltibia 23.4483
lfoot -6.73935 -14.9495
ltoes -9.7262
168
root 3.36185 17.6502 2.10047 -16.4108 -75.7245 26.8148
lowerback 5.24005 -0.850481 -5.40651
upperback 4.14077 -1.42168 1.11177
thorax 1.50379 -0.88509 4.2363
lowerneck -11.6681 -1.74827 -12.0454
upperneck 40.2212 -0.955392 -0.232994
head 16.6219 -2.77902 1.72033
rclavicle -1.19271e-014 -1.03368e-014
rhumerus -30.1179 -1.46007 -69.9608
rradius 39.8213
rwrist 48.1162
rhand -42.5897 -15.4145
rfingers 7.12502
rthumb -15.4632 -44.8161
lclavicle -1.19271e-014 -1.03368e-014
lhumerus -31.1496 4.77149 80.6159
lradius 42.6496
lwrist -2.94014
lhand -15.4785 25.6703
lfingers 7.12502
lthumb 10.7032 55.3777
rfemur -41.744 -0.353635 16.0352
rtibia 76.5575
rfoot -10.5726 6.22759
rtoes -18.6272
lfemur -25.1134 0.357547 -29.4139
ltibia 23.8477
lfoot -6.91648 -14.7884
ltoes -8.14777
